<svg width="40" height="46" viewBox="0 0 40 46" fill="none" xmlns="http://www.w3.org/2000/svg">
<path d="M29.4713 22.1704H30.7185L30.5563 23.6941H29.3136L29.4713 22.1704ZM40 13.6225V32.711C39.9577 33.9165 39.3448 34.9942 38.268 35.7101L21.732 45.2543C20.7795 45.8042 19.2205 45.8042 18.268 45.2543L1.73202 35.7101C0.728434 35.0523 0.0741093 33.9917 0 32.711V13.6225C0 12.5228 0.779341 11.1731 1.73202 10.6234L18.268 1.07917C19.2205 0.529273 20.7795 0.529273 21.732 1.07917L38.268 10.6234C39.2682 11.2984 39.9613 12.4654 40 13.6225ZM31.5469 29.8352L25.7766 26.4972C21.9274 32.6571 13.4266 29.6469 13.3333 23.1668C13.6437 16.1357 22.2928 14.0762 25.7762 19.836L31.5465 16.4979C24.0265 4.404 6.58832 10.1512 6.66667 23.1668C7.0009 37.1988 24.9196 41.3369 31.5469 29.8352ZM32.9245 21.1094H31.9352L32.1135 19.3875H31.0146L30.8314 21.1094H29.5812L29.7595 19.3875H28.6606L28.4774 21.1094H27.4298V22.1704H28.3645L28.2024 23.6941H27.122V24.7551H28.0895L27.8891 26.6384H29.0087L29.2037 24.7551H30.4434L30.2431 26.6384H31.3626L31.5577 24.7551H32.6168V23.6941H31.6675L31.8253 22.1704H32.9245V21.1094Z" fill="#9400CF"/>
</svg>
