<svg width="50" height="20" viewBox="0 0 50 20" fill="none" xmlns="http://www.w3.org/2000/svg">
<path d="M3.6558 6.30844L4.3653 5.40311L13.3794 5.39883L12.7991 6.30417L3.6558 6.30844ZM11.8313 8.53558L12.1303 7.63025L0.709508 7.63813L0 8.54347L11.8313 8.53558ZM11.5031 10.7706L11.5894 9.86528L6.39443 9.86955L5.89021 10.7749L11.5031 10.7706ZM44.638 17.8604C39.64 20.6136 32.8115 19.4477 30.9858 13.478C29.9069 15.6012 28.1453 17.3414 26.046 18.3337C21.0721 20.6847 14.319 18.6345 13.4504 12.1914C12.8143 6.01587 17.8126 2.19979 20.7673 1.23634C25.463 -0.226424 30.0943 1.49239 31.6957 5.77023L26.6517 7.09229C26.1159 5.60096 23.2032 4.52704 20.9644 6.14575C17.4431 8.31831 17.5082 13.7856 21.7625 14.5974C23.9713 14.8806 25.4549 13.7892 26.5671 12.1105L21.0899 12.1222L22.8498 8.32722H31.0585C34.6138 -1.70269 48.4795 -1.26351 49.8887 7.74916C50.3895 10.9525 49.296 15.2945 44.638 17.8604ZM40.0827 5.45112C36.2877 6.26772 35.3418 9.62004 35.9276 11.7679C36.551 14.0536 38.9657 15.5524 42.0294 14.1191C46.9396 11.8219 45.6525 4.25265 40.0827 5.45112Z" fill="#82AAFF"/>
</svg>
