<svg width="45" height="46" viewBox="0 0 45 46" fill="none" xmlns="http://www.w3.org/2000/svg">
<path d="M0 0.666748H45V45.6667H0V0.666748ZM11.825 38.2668C12.825 40.3918 14.8 42.1417 18.175 42.1417C21.925 42.1417 24.5 40.1418 24.5 35.7668V21.3167H20.25V35.6667C20.25 37.8167 19.375 38.3667 18 38.3667C16.55 38.3667 15.95 37.3667 15.275 36.1917L11.825 38.2668ZM26.775 37.8167C28.025 40.2668 30.55 42.1417 34.5 42.1417C38.5 42.1417 41.5 40.0667 41.5 36.2417C41.5 32.7167 39.475 31.1417 35.875 29.5917L34.825 29.1417C33 28.3667 32.225 27.8417 32.225 26.5917C32.225 25.5667 33 24.7667 34.25 24.7667C35.45 24.7667 36.25 25.2917 36.975 26.5917L40.25 24.4167C38.875 22.0167 36.925 21.0917 34.25 21.0917C30.475 21.0917 28.05 23.4917 28.05 26.6667C28.05 30.1167 30.075 31.7417 33.125 33.0417L34.175 33.4917C36.125 34.3417 37.275 34.8667 37.275 36.3167C37.275 37.5168 36.15 38.3917 34.4 38.3917C32.325 38.3917 31.125 37.3167 30.225 35.8167L26.775 37.8167Z" fill="#FFF600"/>
</svg>
