<svg width="45" height="45" viewBox="0 0 45 45" fill="none" xmlns="http://www.w3.org/2000/svg">
<path fill-rule="evenodd" clip-rule="evenodd" d="M0 0V45H45V0H0ZM34.1934 21.857V21.8576C34.6249 21.859 35.1153 21.8812 35.4842 21.9212C36.9862 22.0837 38.156 22.7317 39.1512 23.9524C39.6468 24.5604 39.8164 24.8265 39.7802 24.9403C39.757 25.0137 39.4169 25.2572 38.3358 25.9749C37.2738 26.6799 36.9317 26.8911 36.8523 26.8911C36.7717 26.8911 36.6039 26.7184 36.362 26.3868C35.896 25.7483 35.4203 25.4569 34.6849 25.3597C33.8941 25.2549 33.1847 25.5042 32.8373 26.0092C32.5403 26.4405 32.4955 27.1348 32.7315 27.6392C33.005 28.2235 33.5 28.5465 35.3969 29.3783C37.5847 30.3376 38.6934 30.9942 39.5008 31.8091C40.3704 32.6866 40.8109 33.6999 40.9462 35.133C41.0123 35.8315 40.9316 36.6595 40.7317 37.3326C40.2415 38.9827 38.9185 40.191 36.9795 40.7597C36.4435 40.9168 35.9447 41.0107 35.4513 41.0468C34.6982 41.1023 33.6201 41.0717 32.9713 40.9772C31.3297 40.7382 29.4765 39.7829 28.5524 38.6997C28.0988 38.168 27.5197 37.293 27.5197 37.139C27.5197 37.0647 27.5565 37.0226 27.7024 36.9298C28.1349 36.6551 30.6135 35.2382 30.6616 35.2382C30.6906 35.2382 30.8201 35.3908 30.9492 35.5772C31.2416 35.9994 31.9606 36.725 32.3261 36.9671C32.6247 37.1649 33.0065 37.3237 33.4598 37.4383C33.7194 37.503 33.8569 37.5145 34.4234 37.5145C35.0021 37.5143 35.1209 37.5046 35.3798 37.435C36.0647 37.2507 36.5993 36.8693 36.8259 36.4034C36.9252 36.2021 36.9271 36.1769 36.9271 35.6886V35.1824L36.8054 34.9409C36.5106 34.3556 35.8752 33.9541 33.8666 33.084C32.944 32.6843 31.8139 32.1208 31.3728 31.8405C30.366 31.2006 29.6682 30.4692 29.2102 29.5738C28.7547 28.6834 28.6868 28.352 28.6857 27.0131C28.6846 25.965 28.6828 25.9779 28.8998 25.3089C29.0967 24.7019 29.4997 24.0238 29.9446 23.551C30.8326 22.607 32.1299 22.0005 33.5188 21.8798C33.6964 21.863 33.9344 21.8564 34.1933 21.8572L34.1934 21.857ZM22.2419 22.064H22.2423C24.9173 22.0654 26.4507 22.0746 26.4753 22.0901C26.5217 22.1188 26.5275 22.3516 26.5275 23.8374V25.5514L23.8582 25.5611L21.189 25.5708V33.1495C21.189 37.3178 21.1806 40.7529 21.169 40.7832C21.1501 40.8343 20.9448 40.8382 19.208 40.8382H17.2682L17.2482 40.7598C17.2352 40.7167 17.2258 37.2815 17.2255 33.126L17.2249 25.5704L14.5557 25.5609L11.8864 25.5512V23.8574C11.8864 22.5141 11.8957 22.1543 11.9315 22.1185C11.9682 22.0807 13.3304 22.0709 19.2001 22.0651C20.3318 22.064 21.3502 22.0635 22.2419 22.064Z" fill="#0288D1"/>
</svg>
