<svg width="300" height="300" viewBox="0 0 300 300" fill="none" xmlns="http://www.w3.org/2000/svg">
<rect width="300" height="300" rx="50" fill="#1E1E1E"/>
<rect x="34" y="70" width="20" height="144" transform="rotate(-90 34 70)" fill="#555555"/>
<rect x="34" y="250" width="20" height="144" transform="rotate(-90 34 250)" fill="#555555"/>
<rect x="34" y="50" width="20" height="200" fill="#555555"/>
<path d="M96 128H116V178H96V128Z" fill="#555555"/>
<rect x="146" y="136" width="20" height="27" fill="#555555"/>
<rect x="230" y="70" width="20" height="34" transform="rotate(-90 230 70)" fill="#555555"/>
<rect x="230" y="250" width="20" height="34" transform="rotate(-90 230 250)" fill="#555555"/>
<path d="M229.954 50.096L244.364 63.7631L160.435 149.596L146 135.755L229.954 50.096Z" fill="#555555"/>
<path d="M230 250L244.255 235.975L160.327 150.142L146.124 163.214L230 250Z" fill="#555555"/>
<rect x="248" y="50" width="20" height="200" fill="#555555"/>
</svg>
