<svg width="37" height="46" viewBox="0 0 37 46" fill="none" xmlns="http://www.w3.org/2000/svg">
<path d="M1.46499 27.8041C0.87985 29.2046 0.552955 30.6986 0.5 32.2146C0.580748 33.1496 0.900797 34.0484 1.42957 34.825C2.42454 35.9727 3.62108 36.9301 4.96057 37.6505L13.6118 43.3888C14.6763 44.2329 15.8733 44.8962 17.1546 45.352C17.9865 45.5493 18.8532 45.5493 19.6852 45.352C20.975 44.9018 22.1816 44.2431 23.2566 43.4023L32.0006 37.6605C33.3538 36.9381 34.5639 35.9768 35.5721 34.8233C36.1047 34.0425 36.4244 33.1372 36.5 32.1962C36.4426 30.6678 36.107 29.1626 35.5097 27.7537L27.8623 3.77494C27.6916 2.99836 27.3831 2.25839 26.9513 1.58986C26.6368 1.20914 26.2305 0.914189 25.7703 0.732634C25.0015 0.524961 24.2017 0.45552 23.4085 0.527572H13.4515C12.6579 0.455703 11.8579 0.526875 11.0896 0.737676C10.6284 0.918865 10.2217 1.21523 9.90869 1.59826C9.47879 2.26683 9.17307 3.00697 9.00611 3.78335L1.46499 27.8041ZM23.8016 5.61714C24.1573 6.18056 24.4092 6.80269 24.5455 7.45429L31.1116 28.9421C28.6454 27.6676 25.9982 26.776 23.2617 26.2981L18.9951 11.9102C18.9689 11.8252 18.9226 11.7477 18.8602 11.6842C18.7977 11.6207 18.7209 11.5731 18.6361 11.5453C18.5514 11.5174 18.4611 11.5103 18.373 11.5243C18.2849 11.5384 18.2015 11.5733 18.1297 11.6261C18.0333 11.6963 17.9628 11.7961 17.9289 11.9102L13.7113 26.2931C10.9619 26.7699 8.30241 27.6651 5.82602 28.9471L12.419 7.45933C12.554 6.80653 12.8067 6.18351 13.1647 5.6205C13.4258 5.3012 13.7635 5.05263 14.1466 4.89774C14.7919 4.72395 15.4633 4.66702 16.1288 4.72966H20.8408C21.5069 4.66696 22.1789 4.72389 22.8248 4.89774C23.2089 5.05308 23.5473 5.30289 23.8083 5.62386L23.8016 5.61714ZM18.7185 31.5238C20.7488 31.6409 22.7623 31.0964 24.4544 29.9724C24.6468 30.5757 24.715 31.2115 24.655 31.8417C24.595 32.4718 24.408 33.0835 24.1052 33.64C23.4828 34.694 22.5794 35.5557 21.4954 36.1293C20.3583 36.8487 19.3798 37.474 19.3798 39.133C19.3784 39.6651 19.499 40.1906 19.7324 40.6692C18.9656 40.352 18.3104 39.8154 17.8495 39.1273C17.3885 38.4393 17.1426 37.6306 17.1428 36.8033V36.7008C17.1428 35.5528 17.1428 34.1392 15.5198 34.1392C15.2936 34.1391 15.0695 34.183 14.8602 34.2686C14.439 34.4424 14.1041 34.7754 13.9289 35.1948C13.8419 35.4031 13.7967 35.6263 13.7957 35.852C12.6833 34.6416 12.0857 33.0484 12.1288 31.4078C12.121 30.6978 12.2205 29.9907 12.4241 29.3102C13.0989 30.5826 15.6632 31.5289 18.7185 31.5289V31.5238Z" fill="white"/>
</svg>
