<svg width="41" height="45" viewBox="0 0 41 45" fill="none" xmlns="http://www.w3.org/2000/svg">
<path d="M32.5769 21.8483C35.5832 22.0546 37.9923 20.1136 38.6138 17.4373C37.5242 15.8931 35.2388 15.1599 33.2231 16.4392C31.4107 17.7225 30.9162 19.9659 32.5769 21.8483ZM24.4379 0.943242L13.5576 6.95261L16.0736 8.27263L26.9447 2.28172L24.4379 0.943242ZM14.1141 17.4718L24.7438 41.7277L27.5817 43.471L15.6964 9.04536L12.8654 7.52756L1.54811 28.8811L3.61335 30.0401L13.369 17.3821C13.5824 17.1432 13.9394 17.1354 14.1141 17.4718ZM33.0975 23.2393C30.0062 21.5376 30.0062 17.2602 33.0975 15.5584C36.1888 13.8567 40.0739 15.9954 40.0739 19.3989C40.0739 22.8023 36.1888 24.941 33.0975 23.2393ZM36.6092 26.4395L40.5695 37.9856L28.4759 45L24.0252 42.2376L16.0552 24.0676L3.7225 31.0156L0.416992 29.1567L12.3769 6.66142L24.421 0L28.1743 2.01593L31.9748 13.1273C24.6307 17.1764 28.3215 27.4423 36.6092 26.4395Z" fill="white"/>
</svg>
