<svg width="46" height="40" viewBox="0 0 46 40" fill="none" xmlns="http://www.w3.org/2000/svg">
<path d="M26.9289 19.8968C26.9289 16.8168 23.5939 14.8813 20.9402 16.4213C18.2865 17.9613 18.2865 21.8322 20.9402 23.3722C23.5939 24.9122 26.9289 22.9768 26.9289 19.8968ZM36.0705 12.499C38.7125 -0.130039 32.9 -4.09312 23.0187 5.04839C13.7187 -3.6704 7.0959 -0.922655 9.91409 12.4462C-3.08153 16.3639 -2.2205 23.7388 10.0198 27.5059C7.21919 39.8179 12.4505 44.3094 23.0187 35.0093C33.2699 44.2037 38.7104 39.8989 35.9119 27.453C49.2631 22.9263 48.0654 16.374 36.0705 12.499ZM34.2739 12.0234C32.1794 11.551 30.1527 11.2071 28.0915 11.0194C27.0054 9.43148 25.7405 7.84524 24.2869 6.36942C32.2092 -1.22963 36.8783 1.14478 34.2739 12.0234ZM13.8243 22.3275C14.6082 24.0008 15.6386 25.5331 16.4136 26.819C15.1516 26.6899 13.792 26.4939 12.3448 26.2377C12.8085 24.9396 13.3022 23.6361 13.8243 22.3275ZM13.7187 17.7831C13.1421 16.3992 12.6161 15.0636 12.1863 13.82C13.6803 13.5103 15.1443 13.2292 16.4136 13.1331C15.4689 14.617 14.5717 16.1685 13.7187 17.7831ZM14.8283 20.1081C16.1205 17.5203 17.4874 15.0639 19.0028 12.8689C21.6917 12.7143 24.352 12.728 26.9818 12.9217C28.4567 14.9768 29.8333 17.4331 31.1562 20.1081C30.1662 22.154 28.7604 24.5117 27.1403 27.0303C24.4353 27.2352 21.6616 27.2068 18.8442 27.0303C17.4163 24.8427 16.0753 22.5385 14.8283 20.1081ZM32.1602 22.3275C32.6733 23.5725 33.1475 24.8416 33.5869 26.132C32.2307 26.4176 30.8928 26.6257 29.571 26.7661C30.4758 25.3643 31.3341 23.8759 32.1602 22.3275ZM29.571 13.1331C31.0118 13.3303 32.4036 13.5766 33.7455 13.8729C33.2965 15.2069 32.7865 16.5107 32.2131 17.7831C31.3952 16.1699 30.517 14.6174 29.571 13.1331ZM25.5022 10.8081C23.8565 10.7435 22.1823 10.7456 20.4823 10.8081C21.2266 9.82928 22.0561 8.80682 22.9659 7.74329C23.8525 8.70033 24.6925 9.73044 25.5022 10.8081ZM21.6977 6.36942C20.244 7.84524 18.9791 9.37863 17.8931 10.9666C15.8319 11.1542 13.7524 11.4981 11.6579 11.9706C9.17432 0.926785 13.7754 -1.22963 21.6977 6.36942ZM10.4953 25.7621C-0.513229 22.4507 0.0151827 17.2899 10.3897 14.2428C11.0243 16.1685 11.7926 18.1243 12.6618 20.0024C11.8172 21.9448 11.0694 23.9397 10.4953 25.7621ZM11.8692 27.9815C13.7363 28.4394 15.7148 28.6593 17.7874 28.8798C19.0345 30.6397 20.3259 32.2759 21.6977 33.6883C13.6306 41.4207 9.13346 38.6114 11.8692 27.9815ZM22.9659 32.3673C22.0099 31.3774 21.1174 30.2557 20.271 29.0383C22.1577 29.078 23.98 29.0824 25.7136 29.0383C24.874 30.2294 23.957 31.3379 22.9659 32.3673ZM24.2869 33.6883C25.7588 32.0891 27.0563 30.4679 28.1971 28.8269C30.1443 28.6836 32.117 28.3845 34.1153 27.9286C36.8758 39.2431 31.8636 40.9138 24.2869 33.6883ZM35.4364 25.6564C34.8703 23.834 34.1556 21.9448 33.3227 20.0024C34.1798 18.1243 34.9163 16.2214 35.5421 14.2956C45.6699 17.3604 46.4802 22.257 35.4364 25.6564Z" fill="#26A2C1"/>
</svg>
