<svg width="41" height="25" viewBox="0 0 41 25" fill="none" xmlns="http://www.w3.org/2000/svg">
<path d="M10.6562 8.76562C11.9688 3.51562 15.25 0.890625 20.5 0.890625C28.375 0.890625 29.3594 6.79687 33.2969 7.78125C35.9219 8.4375 38.2188 7.45312 40.1875 4.82812C38.875 10.0781 35.5938 12.7031 30.3438 12.7031C22.4688 12.7031 21.4844 6.79688 17.5469 5.8125C14.9219 5.15625 12.625 6.14062 10.6562 8.76562ZM0.8125 20.5781C2.125 15.3281 5.40625 12.7031 10.6562 12.7031C18.5312 12.7031 19.5156 18.6094 23.4531 19.5937C26.0781 20.25 28.375 19.2656 30.3438 16.6406C29.0312 21.8906 25.75 24.5156 20.5 24.5156C12.625 24.5156 11.6406 18.6094 7.70312 17.625C5.07812 16.9688 2.78125 17.9531 0.8125 20.5781Z" fill="#44A8B3"/>
</svg>
