<svg width="47" height="34" viewBox="0 0 47 34" fill="none" xmlns="http://www.w3.org/2000/svg">
<path d="M3.24985 12.3334H7.91652V16.8751H3.24985V12.3334ZM8.97902 12.3334H13.6665V16.8751H8.97902V12.3334ZM8.97902 6.50008H13.6665V11.0417H8.97902V6.50008ZM14.729 12.3334H19.3957V16.8751H14.729V12.3334ZM14.729 6.50008H19.3957V11.0417H14.729V6.50008ZM20.4582 12.3334H25.1457V16.8751H20.4582V12.3334ZM20.4582 6.50008H25.1457V11.0417H20.4582V6.50008ZM26.2082 12.3334H30.8749V16.8751H26.2082V12.3334ZM20.4582 0.666748H25.1457V5.20842H20.4582V0.666748ZM9.77068 23.4376C10.4999 23.4376 11.0832 24.0001 11.0832 24.7084C11.0832 25.3959 10.4999 25.9792 9.77068 25.9792C9.08318 25.9792 8.47902 25.3959 8.47902 24.7084C8.47902 24.0001 9.08318 23.4376 9.77068 23.4376ZM45.9373 14.6876L46.5832 15.0417L46.2498 15.6876C44.9165 18.2084 42.1457 18.9792 39.4373 18.8542C35.3748 28.6668 26.5207 33.3334 15.8123 33.3334C10.2707 33.3334 5.18735 31.3126 2.29152 26.5417L2.24985 26.4584L1.79152 25.6251C0.854017 23.5209 0.520684 21.2292 0.749851 18.9167L0.812351 18.2292H31.5832C32.6874 18.2292 33.8124 18.0417 34.8332 17.7084L36.4165 17.0001C35.7707 16.1667 35.4165 15.1042 35.3332 14.0626C35.1873 12.6459 35.479 10.7501 36.479 9.70842L36.979 9.12508L37.5623 9.58342C39.0415 10.7501 40.2707 12.3542 40.4998 14.1876C42.2707 13.6876 44.3748 13.7917 45.9373 14.6876ZM9.79152 27.1043C11.1665 27.1043 12.2082 26.0209 12.2082 24.7084C12.2082 23.3751 11.1665 22.2917 9.77068 22.2917C8.41652 22.2917 7.31235 23.3751 7.31235 24.7084C7.31235 26.0417 8.41652 27.1043 9.79152 27.1043Z" fill="#1E9CEF"/>
</svg>
