<svg width="31" height="46" viewBox="0 0 31 46" fill="none" xmlns="http://www.w3.org/2000/svg">
<path d="M15.1665 22.8333C15.1665 20.8441 15.9567 18.9365 17.3632 17.53C18.7697 16.1234 20.6774 15.3333 22.6665 15.3333C24.6556 15.3333 26.5633 16.1234 27.9698 17.53C29.3763 18.9365 30.1665 20.8441 30.1665 22.8333C30.1665 24.8224 29.3763 26.73 27.9698 28.1366C26.5633 29.5431 24.6556 30.3333 22.6665 30.3333C20.6774 30.3333 18.7697 29.5431 17.3632 28.1366C15.9567 26.73 15.1665 24.8224 15.1665 22.8333ZM0.166504 37.8333C0.166504 35.8441 0.95668 33.9365 2.3632 32.53C3.76973 31.1234 5.67738 30.3333 7.6665 30.3333H15.1665V37.8333C15.1665 39.8224 14.3763 41.73 12.9698 43.1366C11.5633 44.5431 9.65563 45.3333 7.6665 45.3333C5.67738 45.3333 3.76973 44.5431 2.3632 43.1366C0.95668 41.73 0.166504 39.8224 0.166504 37.8333ZM15.1665 0.333252V15.3333H22.6665C24.6556 15.3333 26.5633 14.5431 27.9698 13.1366C29.3763 11.73 30.1665 9.82238 30.1665 7.83325C30.1665 5.84413 29.3763 3.93647 27.9698 2.52995C26.5633 1.12343 24.6556 0.333252 22.6665 0.333252L15.1665 0.333252ZM0.166504 7.83325C0.166504 9.82238 0.95668 11.73 2.3632 13.1366C3.76973 14.5431 5.67738 15.3333 7.6665 15.3333H15.1665V0.333252H7.6665C5.67738 0.333252 3.76973 1.12343 2.3632 2.52995C0.95668 3.93647 0.166504 5.84413 0.166504 7.83325ZM0.166504 22.8333C0.166504 24.8224 0.95668 26.73 2.3632 28.1366C3.76973 29.5431 5.67738 30.3333 7.6665 30.3333H15.1665V15.3333H7.6665C5.67738 15.3333 3.76973 16.1234 2.3632 17.53C0.95668 18.9365 0.166504 20.8441 0.166504 22.8333Z" fill="white"/>
</svg>
