<svg width="40" height="41" viewBox="0 0 40 41" fill="none" xmlns="http://www.w3.org/2000/svg">
<path d="M39.0611 18.8555L21.8542 1.65704C21.619 1.42064 21.3394 1.23304 21.0315 1.10504C20.7235 0.97703 20.3933 0.911133 20.0599 0.911133C19.7264 0.911133 19.3962 0.97703 19.0882 1.10504C18.7803 1.23304 18.5007 1.42064 18.2655 1.65704L14.6936 5.22892L19.233 9.75985C19.7671 9.578 20.3415 9.5498 20.8908 9.67847C21.4401 9.80714 21.9423 10.0875 22.3401 10.4876C22.7378 10.8877 23.0152 11.3915 23.1407 11.9416C23.2661 12.4917 23.2345 13.0659 23.0495 13.5989L27.4145 17.9667C28.0666 17.743 28.7755 17.7495 29.4234 17.985C30.0712 18.2206 30.6188 18.671 30.9748 19.2613C31.3308 19.8516 31.4738 20.546 31.38 21.2289C31.2862 21.9118 30.9612 22.542 30.4591 23.0143C29.9571 23.4867 29.3083 23.7728 28.621 23.8249C27.9336 23.877 27.2492 23.692 26.6817 23.3007C26.1141 22.9094 25.6979 22.3355 25.5021 21.6745C25.3064 21.0136 25.3431 20.3055 25.6061 19.6683L21.5364 15.6042V26.3199C22.1508 26.6294 22.6407 27.1399 22.9246 27.7665C23.2086 28.3932 23.2695 29.0981 23.0972 29.7641C22.925 30.4301 22.5299 31.0171 21.9778 31.4275C21.4256 31.8378 20.7496 32.0468 20.0622 32.0197C19.3748 31.9926 18.7174 31.731 18.1993 31.2784C17.6812 30.8258 17.3336 30.2095 17.2144 29.532C17.0951 28.8544 17.2114 28.1565 17.5439 27.5542C17.8763 26.9519 18.4049 26.4816 19.0417 26.2214V15.4074C18.6735 15.2561 18.3389 15.0335 18.057 14.7525C17.7751 14.4714 17.5515 14.1374 17.3992 13.7697C17.2468 13.4019 17.1686 13.0077 17.1691 12.6096C17.1696 12.2116 17.2488 11.8175 17.402 11.4502L12.9499 6.98392L1.15704 18.7739C0.920639 19.0091 0.733044 19.2887 0.605037 19.5967C0.47703 19.9046 0.411133 20.2348 0.411133 20.5683C0.411133 20.9018 0.47703 21.232 0.605037 21.5399C0.733044 21.8478 0.920639 22.1275 1.15704 22.3627L18.3555 39.5611C18.5907 39.7975 18.8703 39.9851 19.1782 40.1131C19.4862 40.2411 19.8164 40.307 20.1499 40.307C20.4833 40.307 20.8135 40.2411 21.1215 40.1131C21.4294 39.9851 21.709 39.7975 21.9442 39.5611L39.0611 22.4442C39.2975 22.209 39.4851 21.9294 39.6131 21.6215C39.7411 21.3135 39.807 20.9833 39.807 20.6499C39.807 20.3164 39.7411 19.9862 39.6131 19.6782C39.4851 19.3703 39.2975 19.0907 39.0611 18.8555Z" fill="#D52A29"/>
</svg>
