<svg width="37" height="48" viewBox="0 0 37 48" fill="none" xmlns="http://www.w3.org/2000/svg">
<path d="M35.6812 37.2781C35.3687 36.9001 35.2249 36.2015 35.0655 35.4556C34.9093 34.7131 34.7312 33.9132 34.1655 33.3968V33.3935C33.9592 33.2003 33.7234 33.0473 33.4687 32.9412C34.2562 30.4268 33.9468 27.9226 33.1562 25.6613C32.1812 22.8837 30.4843 20.4638 29.1874 18.8101C27.7374 16.8323 26.3187 14.9558 26.3437 12.185C26.3874 7.9527 26.7749 0.105828 19.8812 0.0957031C19.5999 0.0957031 19.3093 0.109203 19.0062 0.136203C11.2999 0.804453 13.3437 9.59633 13.228 12.5393C13.0874 14.6926 12.6843 16.3868 11.3124 18.4928C9.70304 20.5617 7.43741 23.9063 6.36241 27.3927C5.85616 29.0363 5.61241 30.7137 5.83741 32.2999C5.76554 32.3675 5.69991 32.4383 5.63741 32.5126C5.16554 33.056 4.81554 33.7174 4.42491 34.1629C4.06241 34.5545 3.54366 34.703 2.97491 34.9223C2.40304 35.1451 1.77804 35.4691 1.39991 36.2555V36.2588C1.23216 36.6124 1.14941 37.0058 1.15929 37.403C1.15929 37.7674 1.20929 38.1353 1.25929 38.4897C1.36554 39.2322 1.47179 39.9308 1.33116 40.4033C0.881164 41.7365 0.821789 42.6545 1.14054 43.3227C1.45929 43.9943 2.10929 44.288 2.84991 44.4533C4.32804 44.7908 6.33116 44.7065 7.90929 45.6076C9.59679 46.5627 11.3124 46.9002 12.678 46.5661C13.1555 46.4648 13.6042 46.2433 13.9875 45.9196C14.3709 45.5959 14.6781 45.1791 14.8843 44.7031C15.953 44.6963 17.1249 44.2103 19.003 44.0956C20.278 43.9876 21.8718 44.585 23.6999 44.477C23.7473 44.6914 23.8187 44.8988 23.9124 45.0946L23.9155 45.098C24.6249 46.6336 25.9468 47.3322 27.353 47.2141C28.7593 47.0926 30.253 46.1982 31.4624 44.6423C32.6187 43.1303 34.5312 42.506 35.7999 41.6791C36.4343 41.264 36.9499 40.7476 36.9874 39.995C37.028 39.2457 36.6187 38.4053 35.6812 37.2781Z" fill="#202020"/>
<path d="M36.4093 39.9612C36.3874 40.4236 36.0749 40.7712 35.503 41.1425C34.353 41.8917 32.3187 42.5397 31.0218 44.2407C29.8905 45.692 28.5155 46.4851 27.303 46.5897C26.0937 46.691 25.0499 46.151 24.4312 44.8145V44.8077C24.0468 44.0213 24.2062 42.7827 24.528 41.4766C24.8499 40.1705 25.3124 38.8272 25.3749 37.7371C25.4374 36.3365 25.5124 35.1147 25.7312 34.1731C25.9499 33.2281 26.2905 32.5936 26.8968 32.2325C26.9247 32.2162 26.9528 32.2004 26.9812 32.1852C27.0499 33.3968 27.6062 34.6321 28.5874 34.8987C29.6593 35.2025 31.2062 34.2102 31.8593 33.3968L32.2405 33.3833C32.8155 33.3665 33.2937 33.4036 33.7874 33.866C34.1655 34.2102 34.3468 34.8683 34.503 35.5973C34.6593 36.3297 34.7843 37.1262 35.2499 37.6932C36.1468 38.7732 36.4374 39.4955 36.4093 39.9612ZM14.5999 43.3868V43.397C14.4937 44.8651 13.7249 45.665 12.5499 45.9552C11.3718 46.2455 9.77491 45.9552 8.18116 45.0575C6.41554 44.045 4.31554 44.1462 2.97179 43.8425C2.29679 43.6906 1.85616 43.4611 1.65616 43.0392C1.45616 42.614 1.44991 41.8748 1.87804 40.6092V40.6058L1.88116 40.5991C2.09366 39.8937 1.93741 39.1208 1.83429 38.3952C1.73116 37.673 1.68116 37.0115 1.90929 36.5525L1.91241 36.5491C2.20616 35.9382 2.63741 35.7188 3.17179 35.513C3.70304 35.3037 4.33741 35.1417 4.83741 34.6017L4.84054 34.5983C5.30304 34.0685 5.65616 33.407 6.06241 32.9378C6.40616 32.543 6.74991 32.2797 7.26554 32.2763H7.28116C7.37854 32.2773 7.47569 32.2863 7.57179 32.3033C8.25929 32.4147 8.85616 32.9345 9.43429 33.7782L11.0999 37.0553V37.0587C11.5437 38.0577 12.478 39.158 13.2718 40.2785C14.0655 41.4023 14.678 42.5262 14.5999 43.3868Z" fill="#F8BF11"/>
<path d="M22.9062 12.8262C22.7718 12.5427 22.4999 12.2727 22.0312 12.0668C21.0624 11.618 20.6437 11.5876 20.103 11.2096C19.228 10.5987 18.4999 10.3861 17.8968 10.3861C17.6073 10.3876 17.32 10.4412 17.0468 10.5447C16.3093 10.8147 15.8218 11.3885 15.5155 11.699C15.453 11.7631 15.378 11.8171 15.1905 11.969C15.003 12.1141 14.7218 12.3402 14.3155 12.671C13.9499 12.9612 13.8343 13.346 13.9593 13.7915C14.0843 14.237 14.4812 14.7533 15.2093 15.1988C15.6624 15.4857 15.9749 15.8738 16.3312 16.181C16.5101 16.3416 16.7089 16.4745 16.9218 16.5758C17.1468 16.6805 17.4093 16.7513 17.7343 16.7716C18.5093 16.8222 19.078 16.5691 19.578 16.262C20.078 15.9515 20.503 15.5735 20.9905 15.4013C21.9905 15.0638 22.7062 14.3855 22.9312 13.7375C22.9879 13.5926 23.0151 13.4361 23.0108 13.2789C23.0065 13.1216 22.9708 12.9672 22.9062 12.8262Z" fill="#D6A312"/>
<path d="M20.3687 14.4192C19.5718 14.8681 18.6437 15.4115 17.653 15.4115C16.6655 15.4115 15.8843 14.9187 15.3249 14.4361C15.0437 14.1998 14.8155 13.9568 14.6437 13.7847C14.3437 13.5316 14.3812 13.1738 14.503 13.184C14.7093 13.211 14.7405 13.5046 14.8687 13.6362C15.0437 13.8117 15.2624 14.0412 15.528 14.2673C16.0593 14.723 16.7687 15.1651 17.653 15.1651C18.5405 15.1651 19.5718 14.6048 20.203 14.2201C20.5624 14.0041 21.0155 13.616 21.3874 13.3223C21.6687 13.0962 21.6593 12.8262 21.8937 12.8566C22.128 12.887 21.9562 13.157 21.628 13.4641C21.2999 13.7746 20.7843 14.1863 20.3687 14.4192Z" fill="#202020"/>
<path d="M32.553 32.759C32.4447 32.7554 32.3363 32.7554 32.228 32.759H32.1968C32.4718 31.8241 31.8655 31.139 30.2562 30.3526C28.5874 29.5595 27.2562 29.6371 27.0312 31.247C27.0155 31.3313 27.003 31.4157 26.9968 31.5035C26.8674 31.553 26.7419 31.614 26.6218 31.6857C25.8343 32.1481 25.4062 32.9885 25.1687 34.0212C24.9312 35.0506 24.8624 36.296 24.7968 37.7C24.7562 38.402 24.4874 39.3537 24.2155 40.3662C21.4812 42.4722 17.6843 43.3835 14.4593 41.0075C14.2405 40.6362 13.9905 40.265 13.7312 39.9005C13.5665 39.6681 13.3998 39.4375 13.2312 39.2086C13.5182 39.2169 13.8037 39.1594 14.0687 39.0398C14.2011 38.9798 14.3208 38.8915 14.4207 38.7801C14.5206 38.6687 14.5986 38.5367 14.6499 38.3918C14.8468 37.8181 14.6499 37.0148 14.0187 36.0968C13.3905 35.1755 12.3249 34.1393 10.7593 33.0998C9.60929 32.3236 8.96554 31.3786 8.66554 30.3526C8.36241 29.3232 8.40304 28.2095 8.63429 27.1126C9.08116 25.0032 10.228 22.9512 10.9562 21.6653C11.153 21.5101 11.028 21.9556 10.2187 23.579C9.49366 25.064 8.13429 28.4896 9.99366 31.166C10.0437 29.2625 10.4624 27.3185 11.1718 25.5061C12.1999 22.985 14.353 18.6177 14.5218 15.1347C14.6124 15.2022 14.9124 15.425 15.0499 15.506C15.4437 15.7591 15.7405 16.127 16.1249 16.4611C16.6262 16.918 17.2662 17.1584 17.9218 17.1361C18.6718 17.1361 19.2562 16.8695 19.7405 16.5691C20.2718 16.2451 20.6905 15.8806 21.0937 15.7422C21.9374 15.4553 22.6124 14.9491 22.9937 14.3585C23.6499 17.1597 25.1812 21.1996 26.1624 23.1706C26.6843 24.2168 27.7249 26.441 28.1718 29.1173C28.4562 29.1106 28.7687 29.1511 29.1062 29.2456C30.278 25.9617 28.1093 22.4213 27.1187 21.4358C26.7187 21.0173 26.6968 20.8283 26.8999 20.8385C27.9718 21.8645 29.3843 23.9333 29.8999 26.2655C30.1343 27.3286 30.1812 28.4457 29.9312 29.5493C30.0562 29.6067 30.1812 29.6641 30.3062 29.7316C32.1905 30.7205 32.8874 31.5811 32.553 32.759Z" fill="white"/>
<path d="M19.1249 23.876C17.3874 23.8827 15.6905 24.7231 14.2562 26.2925C12.8187 27.8585 11.7124 30.0792 11.0749 32.6645L11.2655 32.7927V32.8062C12.7343 33.812 13.7812 34.8245 14.428 35.7695C15.1124 36.7685 15.4155 37.7405 15.1249 38.5842C14.9715 39.0104 14.6682 39.3538 14.2812 39.5393L14.153 39.59C14.3843 39.9173 14.6093 40.2548 14.8187 40.6025C17.7687 42.722 21.1999 41.9389 23.778 40.0219C24.028 39.0837 24.2562 38.2129 24.2874 37.6662C24.353 36.2656 24.4187 34.9932 24.6749 33.8862C24.9312 32.7725 25.4312 31.76 26.3749 31.2031C26.428 31.1693 26.4812 31.1525 26.5343 31.1255C26.5509 31.0182 26.5739 30.9123 26.603 30.8082C25.8468 28.709 24.7562 26.9607 23.4468 25.7457C22.1343 24.5307 20.6437 23.8861 19.128 23.876H19.1249ZM26.5312 31.1491L26.5249 31.166V31.1592L26.528 31.1457L26.5312 31.1491Z" fill="#E6E6E6"/>
<path d="M22.9937 9.60308C23.0072 10.4018 22.7704 11.182 22.3218 11.8171C22.0974 11.7088 21.8703 11.6075 21.6405 11.5133L21.2437 11.3615C21.3343 11.2433 21.5093 11.1083 21.578 10.9328C21.677 10.6724 21.73 10.3942 21.7343 10.1127L21.7374 10.079C21.7452 9.80854 21.7081 9.5388 21.628 9.28245C21.5651 9.04835 21.4491 8.8349 21.2905 8.66145C21.2277 8.58937 21.1522 8.5314 21.0686 8.49086C20.9849 8.45032 20.8947 8.42801 20.803 8.4252H20.7812C20.6062 8.42783 20.4382 8.49991 20.3093 8.6277C20.1387 8.78725 20.0076 8.99026 19.928 9.21833C19.8296 9.47895 19.7766 9.75701 19.7718 10.0385V10.0722C19.7669 10.2303 19.7763 10.3886 19.7999 10.5447C19.4454 10.368 19.0746 10.2322 18.6937 10.1397C18.6755 9.99082 18.6651 9.84096 18.6624 9.69083V9.64695C18.6492 9.12826 18.7431 8.6129 18.9374 8.13833C19.1029 7.70137 19.3724 7.31946 19.7187 7.03133C20.0249 6.76422 20.4063 6.6178 20.7999 6.6162H20.8187C21.2093 6.6162 21.5437 6.7377 21.8874 7.0077C22.2413 7.28752 22.5188 7.6653 22.6905 8.1012C22.8874 8.56695 22.9843 9.02258 22.9937 9.56258L22.9968 9.60308H22.9937ZM17.0874 10.1566C16.7815 10.2511 16.4899 10.3932 16.2218 10.5785C16.2427 10.4106 16.2448 10.2406 16.228 10.0722V10.0452C16.2089 9.82221 16.1583 9.60368 16.078 9.3972C16.0137 9.21551 15.911 9.05255 15.778 8.92133C15.7292 8.86956 15.6709 8.82932 15.6069 8.80318C15.5429 8.77703 15.4745 8.76555 15.4062 8.76945C15.2749 8.78295 15.1655 8.85045 15.0624 8.98883C14.9526 9.1436 14.8777 9.32386 14.8437 9.51533C14.7949 9.74196 14.7812 9.97574 14.803 10.2072V10.2342C14.821 10.4585 14.8716 10.6783 14.953 10.8856C15.0279 11.0931 15.1531 11.275 15.3155 11.4121L14.9968 11.6821L14.753 11.8711C14.5365 11.6411 14.3663 11.3654 14.253 11.0611C14.0874 10.6561 13.9968 10.2511 13.9718 9.7752V9.77183C13.9432 9.32747 13.9908 8.88122 14.1124 8.45558C14.2057 8.08438 14.3853 7.74512 14.6343 7.47008C14.7387 7.34555 14.866 7.24583 15.008 7.17727C15.15 7.10871 15.3037 7.0728 15.4593 7.07183C15.7218 7.07183 15.953 7.16633 16.1937 7.37558C16.4686 7.61943 16.6824 7.93391 16.8155 8.2902C16.9812 8.6952 17.0655 9.1002 17.0937 9.57945C17.103 9.78195 17.103 9.97095 17.0874 10.1566Z" fill="white"/>
<path d="M18.3937 11.2973C18.4249 11.4121 18.5968 11.3952 18.6968 11.4492C18.7812 11.4965 18.853 11.6011 18.9468 11.6045C19.0405 11.6078 19.1843 11.5707 19.1968 11.4695C19.2124 11.3412 19.0343 11.2568 18.9218 11.2096C18.7749 11.1455 18.5874 11.1151 18.4499 11.1995C18.4187 11.2163 18.3843 11.2568 18.3937 11.2973ZM17.3874 11.2973C17.3562 11.4121 17.1843 11.3952 17.0874 11.4492C16.9999 11.4965 16.9312 11.6011 16.8343 11.6045C16.7405 11.6078 16.5968 11.5707 16.5843 11.4695C16.5687 11.3412 16.7468 11.2568 16.8593 11.2096C17.0062 11.1455 17.1968 11.1151 17.3343 11.1995C17.3655 11.2163 17.3968 11.2568 17.3874 11.2973Z" fill="#202020"/>
</svg>
