<svg width="50" height="49" viewBox="0 0 50 49" fill="none" xmlns="http://www.w3.org/2000/svg">
<path d="M19.9158 3.77768C7.83595 -0.0235389 0.927366 3.43596 1.41807 13.6155C1.47066 14.5939 1.82149 16.6234 2.42817 19.1427C3.03483 21.6618 3.88822 24.6194 4.93766 27.2754C5.98706 29.9311 7.19862 32.2729 8.70978 33.6395C9.46534 34.3227 10.3614 34.7837 11.3455 34.7449C12.3296 34.706 13.2657 34.1703 14.1076 33.2289C16.1158 30.9811 17.7625 29.3599 18.0848 29.0442C18.9528 29.4786 19.7999 29.7521 21.0014 29.7641C19.962 31.0199 19.7965 31.4295 18.0757 31.6647C16.1801 31.9237 14.3812 32.5735 15.343 34.1453C16.0339 35.2743 21.1921 36.4417 24.1771 33.7974C24.2318 41.6795 23.9596 48.1247 31.595 46.9674C37.8029 46.0265 37.4345 41.9099 38.571 33.2604C44.3095 34.3586 50.1116 30.7511 48.1512 29.0441C47.1484 28.0973 43.7293 30.0462 41.144 28.8229C45.2333 23.662 50.2399 10.661 47.3622 6.50966C43.2679 1.76673 36.6252 0.567351 29.7634 2.60911C25.3887 1.68127 22.2865 2.28829 19.9158 3.77768ZM32.1937 3.38246C39.8844 1.87208 47.2707 5.32758 46.856 10.2521C46.3042 16.803 43.7094 22.3709 40.306 27.5594C40.223 27.4645 40.1395 27.3741 40.0534 27.2752C42.1015 23.7541 40.8671 21.4355 40.811 18.4478C40.7837 16.9941 41.4858 13.8677 41.2489 13.2345C39.9948 9.88147 38.3782 6.19247 32.1937 3.38246ZM26.1176 3.52496C33.4737 3.75508 37.5751 8.04948 39.6592 12.9049C34.3997 12.4477 32.8524 14.8661 33.8356 18.5267C34.5333 20.8026 35.6099 22.9344 36.8659 24.859C37.5888 25.9167 37.3899 26.3147 39.3754 28.6647C37.6005 29.1337 37.2237 30.3417 37.2443 31.8701C37.1528 33.0049 36.3717 39.1323 35.9817 41.2344C35.3939 44.5974 33.5526 45.2205 31.2942 45.656C25.4208 46.5042 25.6474 42.612 25.6591 31.2865C25.5373 29.6787 24.047 28.463 22.5031 28.7598C23.3107 25.3516 26.2239 22.981 24.4286 15.9533C23.4564 12.3879 19.6262 12.5104 16.0322 14.2794C16.694 7.64123 19.8133 3.47657 26.1176 3.52496ZM14.3751 21.9694C13.9948 24.4995 15.0612 26.8463 16.8688 28.286C15.9218 29.3148 14.3602 30.7106 13.677 31.6142C10.9793 35.1822 9.24049 33.3258 6.29468 26.8014C3.19967 17.0571 0.870181 10.4769 5.07938 5.79907C8.36081 2.838 13.247 3.28725 18.6206 4.77251C17.273 5.99944 16.3694 7.51177 15.7639 9.0046C13.653 14.7282 15.0614 17.5466 14.3751 21.9694ZM39.1385 26.0435C37.6562 23.489 35.6604 20.0108 35.2402 18.2109C34.503 15.3121 35.3181 13.7769 39.8488 14.2789C39.8218 15.6025 39.4339 16.6903 39.3753 18.4004C39.3652 20.8989 40.3706 24.0423 39.1385 26.0435ZM21.083 28.412C17.9493 28.4073 15.282 25.577 15.7957 22.1586C16.1086 20.1786 16.0952 18.0897 15.9377 15.9527C18.2446 14.3997 22.5047 13.3399 23.0243 16.2372C24.6924 23.3164 22.2975 24.0767 21.083 28.412ZM38.5071 15.1949C38.4198 14.5225 35.9892 14.8383 36.0765 15.5108C36.2831 16.2238 37.7569 16.6999 38.4803 15.3761C38.5056 15.3298 38.512 15.2436 38.5071 15.1949ZM22.1875 16.2848C23.138 15.2465 19.8508 14.6993 19.6781 15.6374C19.5744 16.1796 21.0022 17.4871 22.1875 16.2848ZM46.6507 30.2125C44.0703 32.4173 39.9023 32.3943 38.6964 31.8388C38.7087 30.8429 38.6703 30.1056 40.2115 29.8493C41.3835 30.6785 43.4486 30.839 46.6507 30.2125ZM16.6793 33.434C17.2083 33.097 18.993 32.9357 20.0983 32.4519C20.9848 32.0638 21.5145 31.2538 22.355 30.3667C23.1495 29.3875 24.6756 30.7908 24.0657 31.8864C21.929 34.7444 18.1064 34.2029 16.6793 33.434ZM1.059 19.4742C-3.27557 3.35324 6.23733 -1.6681 19.7338 2.38243C22.422 0.903241 25.7955 0.505549 29.8781 1.22718C37.0922 -0.756056 44.5318 0.628188 48.7778 6.11687C51.1042 9.95098 48.8104 19.5696 43.5198 27.9251C47.1342 27.7627 47.2838 26.8274 49.0589 28.0201C52.5319 31.2715 45.7159 35.3757 39.6425 34.8252C39.6007 35.0267 39.5659 35.2528 39.5317 35.5057C39.3962 40.1998 38.699 43.0927 37.1737 45.1121C35.6319 47.1531 33.3165 47.8029 31.4921 48.1664C24.0711 49.2518 23.0451 43.4375 23.0095 36.1071C19.7852 37.4943 15.4921 36.5388 14.2737 35.0309C11.6928 36.911 9.38409 36.0751 7.73757 34.6511C4.70403 31.7661 2.93118 26.5894 1.059 19.4742Z" fill="#0DA8E8"/>
</svg>
