<svg width="42" height="42" viewBox="0 0 42 42" fill="none" xmlns="http://www.w3.org/2000/svg">
<path d="M31.4165 30.3124V11.3958L18.9165 20.8541M0.624824 15.1457C-0.000176311 14.4791 -0.0210096 13.4374 0.583157 12.7499L3.08316 10.4374C3.49982 10.0624 4.52066 9.89575 5.27066 10.4374L12.3957 15.8749L28.9165 0.770749C29.5832 0.104082 30.729 -0.166751 32.0415 0.520749L40.3748 4.49992C41.1248 4.93742 41.8332 5.62492 41.8332 6.89575V35.0207C41.8332 35.8541 41.229 36.7499 40.5832 37.1041L31.4165 41.4791C30.7498 41.7499 29.4998 41.4999 29.0623 41.0624L12.354 25.8541L5.27066 31.2708C4.47899 31.8124 3.49982 31.6666 3.08316 31.2708L0.583157 28.9791C-0.0835096 28.2916 -0.00017634 27.1666 0.687324 26.4791L6.93732 20.8541" fill="#4FC3F7"/>
</svg>
